<?xml version="1.0" standalone="no"?>
<!DOCTYPE svg PUBLIC "-//W3C//DTD SVG 20010904//EN"
 "http://www.w3.org/TR/2001/REC-SVG-20010904/DTD/svg10.dtd">
<svg version="1.0" xmlns="http://www.w3.org/2000/svg"
 width="128.000000pt" height="128.000000pt" viewBox="0 0 128.000000 128.000000"
 preserveAspectRatio="xMidYMid meet">
<metadata>
Created by potrace 1.16, written by Peter Selinger 2001-2019
</metadata>
<g transform="translate(0.000000,128.000000) scale(0.100000,-0.100000)"
fill="#000000" stroke="none">
<path d="M465 1261 c-87 -25 -175 -73 -253 -137 l-67 -55 55 51 c30 29 74 63
98 77 54 32 55 42 1 11 -47 -26 -179 -144 -179 -160 0 -6 8 -5 18 3 14 11 13
10 -2 -9 -21 -24 -32 -29 -20 -9 5 8 2 8 -9 -2 -19 -15 -23 -36 -5 -25 7 4 8
3 4 -5 -4 -6 -12 -9 -17 -6 -10 7 -89 -150 -88 -174 0 -9 6 0 13 19 17 46 65
140 71 140 3 0 -8 -26 -24 -58 -44 -87 -61 -166 -61 -282 0 -116 17 -195 61
-282 16 -32 27 -58 24 -58 -6 0 -54 94 -71 140 -7 19 -13 28 -13 19 -1 -24 78
-181 88 -174 5 3 13 0 17 -6 4 -8 3 -9 -4 -5 -18 11 -14 -10 5 -25 15 -12 16
-12 8 1 -5 9 0 8 13 -4 25 -21 31 -36 7 -16 -9 7 -15 8 -15 2 0 -16 132 -134
179 -160 54 -31 53 -21 -1 11 -24 14 -68 48 -98 77 l-55 51 67 -55 c134 -110
261 -156 428 -156 167 0 294 46 428 156 l67 55 -55 -51 c-30 -29 -74 -63 -97
-77 -55 -32 -56 -42 -2 -11 47 26 179 144 179 160 0 6 -8 5 -17 -3 -15 -11
-14 -10 1 9 21 24 32 29 20 10 -5 -9 -2 -9 9 1 19 15 23 36 5 25 -7 -4 -8 -3
-4 5 4 6 12 9 17 6 10 -7 89 150 88 174 0 9 -6 0 -13 -19 -17 -46 -65 -140
-71 -140 -3 0 8 26 24 58 49 98 63 171 59 307 -4 115 -11 146 -53 250 -5 11
-5 17 -1 13 4 -3 18 -32 32 -65 13 -32 24 -51 24 -42 0 25 -79 181 -89 174 -5
-3 -13 0 -17 6 -4 8 -3 9 4 5 18 -11 14 10 -5 25 -15 12 -16 12 -8 -1 5 -9 0
-8 -13 4 -25 21 -31 36 -7 16 9 -7 15 -8 15 -2 0 16 -132 134 -179 160 -54 31
-53 21 2 -11 23 -14 67 -48 97 -77 l55 -51 -67 55 c-79 65 -180 118 -265 140
-83 22 -259 20 -338 -3z m266 -151 c244 -45 420 -293 382 -539 -10 -63 -58
-191 -72 -191 -8 0 -661 653 -661 661 0 10 117 59 162 68 61 12 127 13 189 1z
m-428 -268 c50 -51 57 -61 51 -88 -4 -21 0 -37 17 -58 18 -24 28 -27 60 -24
37 3 43 0 126 -84 l88 -88 -57 0 c-31 0 -59 -4 -63 -9 -3 -5 2 -28 11 -51 12
-29 27 -46 55 -60 47 -24 78 -25 124 -3 l36 17 74 -74 c41 -41 75 -77 75 -81
0 -14 -127 -62 -191 -72 -311 -48 -590 231 -542 542 10 64 58 191 72 191 4 0
32 -26 64 -58z"/>
<path d="M805 790 c-42 -47 -8 -120 55 -120 33 0 70 40 70 75 0 54 -88 86
-125 45z"/>
</g>
</svg>
