<?xml version="1.0" standalone="no"?>
<!DOCTYPE svg PUBLIC "-//W3C//DTD SVG 20010904//EN"
 "http://www.w3.org/TR/2001/REC-SVG-20010904/DTD/svg10.dtd">
<svg version="1.0" xmlns="http://www.w3.org/2000/svg"
 width="128.000000pt" height="128.000000pt" viewBox="0 0 128.000000 128.000000"
 preserveAspectRatio="xMidYMid meet">

<g transform="translate(0.000000,128.000000) scale(0.100000,-0.100000)"
fill="#000000" stroke="none">
<path d="M493 1261 c-339 -83 -552 -421 -477 -754 78 -347 417 -566 757 -491
345 77 566 418 491 757 -78 351 -428 572 -771 488z m238 -151 c244 -45 420
-293 382 -539 -10 -63 -58 -191 -72 -191 -8 0 -661 653 -661 661 0 10 117 59
162 68 61 12 127 13 189 1z m-428 -268 c50 -51 57 -61 51 -88 -4 -21 0 -37 17
-58 18 -24 28 -27 60 -24 37 3 43 0 126 -84 l88 -88 -57 0 c-31 0 -59 -4 -63
-9 -3 -5 2 -28 11 -51 12 -29 27 -46 55 -60 47 -24 78 -25 124 -3 l36 17 74
-74 c41 -41 75 -77 75 -81 0 -14 -127 -62 -191 -72 -311 -48 -590 231 -542
542 10 64 58 191 72 191 4 0 32 -26 64 -58z"/>
<path d="M805 790 c-42 -47 -8 -120 55 -120 33 0 70 40 70 75 0 54 -88 86
-125 45z"/>
</g>
</svg>
